<svg width="16" height="16" viewBox="0 0 16 16" fill="none" xmlns="http://www.w3.org/2000/svg">
<path d="M8.00008 9.33341V14.6667H2.66675C2.66675 13.2523 3.22865 11.8957 4.22885 10.8955C5.22904 9.89532 6.58559 9.33341 8.00008 9.33341ZM8.00008 8.66675C5.79008 8.66675 4.00008 6.87675 4.00008 4.66675C4.00008 2.45675 5.79008 0.666748 8.00008 0.666748C10.2101 0.666748 12.0001 2.45675 12.0001 4.66675C12.0001 6.87675 10.2101 8.66675 8.00008 8.66675ZM14.2974 13.3547L15.3001 14.3574L14.3574 15.3001L13.3547 14.2974C12.7956 14.6271 12.1355 14.7415 11.4981 14.6193C10.8606 14.497 10.2896 14.1465 9.89217 13.6334C9.49469 13.1202 9.298 12.4798 9.33897 11.832C9.37994 11.1842 9.65575 10.5737 10.1147 10.1147C10.5737 9.65575 11.1842 9.37994 11.832 9.33897C12.4798 9.298 13.1202 9.49469 13.6334 9.89217C14.1465 10.2896 14.497 10.8606 14.6193 11.4981C14.7415 12.1355 14.6271 12.7956 14.2974 13.3547ZM12.0001 13.3334C12.3537 13.3334 12.6928 13.1929 12.9429 12.9429C13.1929 12.6928 13.3334 12.3537 13.3334 12.0001C13.3334 11.6465 13.1929 11.3073 12.9429 11.0573C12.6928 10.8072 12.3537 10.6667 12.0001 10.6667C11.6465 10.6667 11.3073 10.8072 11.0573 11.0573C10.8072 11.3073 10.6667 11.6465 10.6667 12.0001C10.6667 12.3537 10.8072 12.6928 11.0573 12.9429C11.3073 13.1929 11.6465 13.3334 12.0001 13.3334Z" fill="#A8F593"/>
</svg>
